<svg id="_x31__x2C_5" enable-background="new 0 0 24 24" height="512" viewBox="0 0 24 24" width="512" xmlns="http://www.w3.org/2000/svg"><path d="m18.19 6.64c-1.08-2.3-3.45-3.89-6.19-3.89-3.45 0-6.3 2.51-6.77 5.8h-.08c-2.43 0-4.4 1.94-4.4 4.35s1.97 4.35 4.4 4.35h12.72c2.97 0 5.38-2.38 5.38-5.32 0-2.83-2.23-5.14-5.06-5.29z" fill="#00bcd4"/><g fill="#607d8b"><path d="m12 10.25c-.689 0-1.25-.561-1.25-1.25s.561-1.25 1.25-1.25 1.25.561 1.25 1.25-.561 1.25-1.25 1.25z"/><path d="m17 14.5c-.827 0-1.5-.673-1.5-1.5s.673-1.5 1.5-1.5 1.5.673 1.5 1.5-.673 1.5-1.5 1.5z"/><path d="m7 14.25c-.689 0-1.25-.561-1.25-1.25s.561-1.25 1.25-1.25 1.25.561 1.25 1.25-.561 1.25-1.25 1.25z"/></g><path d="m12 11c-1.103 0-2-.897-2-2s.897-2 2-2 2 .897 2 2-.897 2-2 2zm0-2.5c-.275 0-.5.224-.5.5s.225.5.5.5.5-.224.5-.5-.225-.5-.5-.5z"/><path d="m17 15c-1.103 0-2-.897-2-2s.897-2 2-2 2 .897 2 2-.897 2-2 2zm0-2.5c-.275 0-.5.224-.5.5s.225.5.5.5.5-.224.5-.5-.225-.5-.5-.5z"/><path d="m12 22c-.414 0-.75-.336-.75-.75v-10.75c0-.414.336-.75.75-.75s.75.336.75.75v10.75c0 .414-.336.75-.75.75z"/><path d="m14.75 19c-.414 0-.75-.336-.75-.75v-2.75c0-.174.061-.343.172-.478l1.19-1.44c.266-.319.738-.363 1.056-.1.319.264.364.737.101 1.056l-1.019 1.232v2.48c0 .414-.336.75-.75.75z"/><path d="m7 15c-1.103 0-2-.897-2-2s.897-2 2-2 2 .897 2 2-.897 2-2 2zm0-2.5c-.275 0-.5.224-.5.5s.225.5.5.5.5-.224.5-.5-.225-.5-.5-.5z"/><path d="m9.25 19c-.414 0-.75-.336-.75-.75v-2.48l-1.019-1.232c-.264-.319-.219-.792.101-1.056.317-.264.79-.219 1.056.1l1.19 1.44c.111.135.172.304.172.478v2.75c0 .414-.336.75-.75.75z"/><path d="m6.25 18h-1.1c-2.839 0-5.15-2.288-5.15-5.1 0-2.629 2.02-4.8 4.603-5.071.777-3.364 3.852-5.829 7.397-5.829 2.792 0 5.363 1.529 6.671 3.93 3.022.377 5.329 2.933 5.329 6 0 3.273-2.685 5.992-5.984 6.06-.006 0-.011 0-.016 0-.407 0-.741-.326-.75-.734-.009-.414.32-.757.734-.766 2.49-.051 4.516-2.097 4.516-4.56 0-2.417-1.91-4.412-4.35-4.541-.275-.015-.521-.18-.639-.43-.986-2.101-3.15-3.459-5.511-3.459-3.017 0-5.607 2.216-6.027 5.156-.053.369-.369.644-.743.644-2.093 0-3.73 1.615-3.73 3.6s1.638 3.6 3.65 3.6h1.1c.414 0 .75.336.75.75s-.336.75-.75.75z"/></svg>