<svg id="nervous" enable-background="new 0 0 300 300" height="512" viewBox="0 0 300 300" width="512" xmlns="http://www.w3.org/2000/svg" xmlns:xlink="http://www.w3.org/1999/xlink"><linearGradient id="SVGID_1_" gradientUnits="userSpaceOnUse" x1="63.451" x2="230.069" y1="227.029" y2="60.412"><stop offset="0" stop-color="#107eff"/><stop offset="1" stop-color="#8f16ff"/></linearGradient><g><path d="m234 74c0-2.209 1.791-4 4-4s4 1.791 4 4-1.791 4-4 4-4-1.791-4-4zm-43.222 33.922c-.957-3.152-.625-6.492.93-9.398s4.148-5.031 7.301-5.988c3.148-.961 6.492-.629 9.398.93 2.906 1.555 5.031 4.148 5.988 7.301s.625 6.492-.926 9.398c-1.555 2.906-4.148 5.031-7.305 5.988-1.184.359-2.395.535-3.594.535-2.004 0-3.988-.492-5.805-1.461-2.905-1.555-5.03-4.149-5.987-7.305zm7.656-2.32c.336 1.109 1.086 2.023 2.105 2.57 1.027.547 2.195.656 3.305.324 1.109-.336 2.023-1.086 2.57-2.105.543-1.023.66-2.195.324-3.305s-1.086-2.02-2.105-2.566c-.641-.344-1.34-.516-2.043-.516-.422 0-.848.062-1.262.188-1.109.336-2.02 1.086-2.566 2.105-.547 1.023-.664 2.195-.328 3.305zm-3.082-36.329c.781.781 1.805 1.172 2.828 1.172s2.047-.391 2.828-1.172l3.068-3.068 3.068 3.068c.781.781 1.805 1.172 2.828 1.172s2.047-.391 2.828-1.172c1.562-1.562 1.562-4.094 0-5.656l-3.068-3.068 3.068-3.068c1.562-1.562 1.562-4.094 0-5.656s-4.094-1.562-5.656 0l-3.068 3.068-3.068-3.068c-1.562-1.562-4.094-1.562-5.656 0s-1.562 4.094 0 5.656l3.068 3.068-3.068 3.068c-1.563 1.563-1.563 4.094 0 5.656zm66.648 128.727c0 4.418-3.582 8-8 8-2.954 0-5.505-1.619-6.891-4h-5.109c-9.658 0-17.737 6.883-19.596 16h7.596c8.824 0 16 7.176 16 16s-7.176 16-16 16h-1.109c-1.386 2.381-3.937 4-6.891 4-4.418 0-8-3.582-8-8s3.582-8 8-8c2.954 0 5.505 1.619 6.891 4h1.109c4.41 0 8-3.59 8-8s-3.59-8-8-8h-20v11.289c0 15.832-12.879 28.711-28.711 28.711h-8.398c-1.386 2.381-3.937 4-6.891 4-4.418 0-8-3.582-8-8s3.582-8 8-8c2.954 0 5.505 1.619 6.891 4h8.398c11.422 0 20.711-9.289 20.711-20.711v-11.289h-16.737c-1.656 4.646-6.055 8-11.263 8h-92c-15.438 0-28-12.562-28-28s12.563-28 28-28h41.047c1.883 0 2.91-1.066 3.438-1.957.535-.895.977-2.305.074-3.953l-11.094-20.344c-1.535-2.812-1.883-6.055-.98-9.133.261-.883.639-1.706 1.079-2.49-4.412-5.355-15.025-16.603-24.595-14.245-4.629 1.16-6.715 3.02-9.355 5.371-2.919 2.604-6.066 5.381-12.205 7.463-2.168 6.595-9.862 15.213-12.487 18.021-.789.841-1.855 1.267-2.922 1.267-.98 0-1.961-.355-2.73-1.078-1.613-1.508-1.699-4.039-.191-5.652 3.224-3.452 6.198-7.224 8.238-10.287-4.622.64-10.27 1.017-17.317 1.017-2.211 0-4-1.789-4-4s1.789-4 4-4c.446 0 .84-.012 1.274-.015-2.935-4.34-4.607-9.231-5.094-10.798-.652-2.109.523-4.348 2.633-5.004 2.094-.668 4.348.516 5.008 2.625 1.609 5.153 5.5 12.357 8.672 12.689 4.938-.45 8.628-1.179 11.501-2.088.118-.597.159-1.327-.126-2.034-.566-1.41-2.34-2.648-5.133-3.582-2.094-.695-3.227-2.961-2.527-5.059.699-2.094 2.945-3.234 5.059-2.527 5.246 1.746 8.641 4.559 10.094 8.359.124.325.184.638.273.958.959-.737 1.815-1.494 2.66-2.247 1.896-1.689 3.979-3.522 7.005-5.05-.258-2.57-1.263-6.855-5.037-10.262-5.898-5.312-16.805-6.707-31.547-4.031-2.168.422-4.258-1.043-4.648-3.219-.398-2.172 1.043-4.254 3.219-4.648 3.125-.569 6.049-.913 8.877-1.152l-3.862-9.395c-.84-2.043.137-4.379 2.18-5.219 2.035-.828 4.379.133 5.219 2.18l5.01 12.189c7.354.327 13.405 2.069 18.107 5.212 2.407-1.902 8.406-7.283 9.082-14.3.465-4.859-1.797-9.824-6.727-14.754-3.086-3.086-5.675-6.075-7.927-8.957-2.283.216-5.908.484-9.944.484-5.945 0-12.703-.582-17.09-2.777-1.977-.988-2.777-3.391-1.789-5.367.992-1.977 3.391-2.773 5.367-1.789 3.674 1.84 11.491 2.112 18.135 1.801-7.756-12.729-7.924-21.705-7.924-22.223 0-2.211 1.789-4 4-4s4 1.789 4 4c.002.059.15 4.067 2.837 10.456 3.271-5.331 5.329-11.604 5.358-11.687.68-2.098 2.93-3.254 5.035-2.574 2.102.68 3.254 2.93 2.578 5.031-.153.469-3.397 10.369-8.81 17.214 2.738 4.433 6.517 9.419 11.829 14.732.106.106.192.214.296.321.664-2.18.871-4.499.875-5.504.012-2.199 1.801-3.984 4-3.984h.012c2.205.007 3.99 1.792 3.99 3.995 0 .853-.125 7.521-3.382 12.566 1.519 2.615 2.518 5.279 2.996 7.982l18.776 3.129c.861-1.026 1.948-2.043 3.391-3.005 6.432-4.289 12.618-10.824 16.104-18.216.879-12.063-17.548-14.391-18.343-14.484-2.191-.258-3.766-2.238-3.512-4.43.25-2.191 2.156-3.805 4.422-3.516 5.842.663 14.662 3.308 20.252 8.962-.084-1.341-.25-2.683-.584-4.021-.539-2.141.766-4.312 2.91-4.848 2.129-.547 4.312.766 4.848 2.91 1.425 5.697 1.051 11.402-.538 16.825l6.87-3.435c1.977-.984 4.379-.188 5.367 1.789s.188 4.379-1.789 5.367l-15.93 7.965c-4.185 6.404-9.818 11.905-15.641 15.785-2.539 1.691-2.562 3.07-2.57 3.523-.048 2.444 2.527 5.591 4.846 7.805 3.432-2.854 7.61-4.908 12.55-6.12 2.628-6.428 11.592-24.518 27.924-20.416 2.145.535 3.449 2.707 2.91 4.848-.535 2.145-2.715 3.438-4.848 2.91-7.849-1.952-13.492 5.635-16.563 11.403 4.314-.186 8.983.029 14.099.757 2.188.312 3.707 2.34 3.395 4.527s-2.32 3.711-4.527 3.395c-2.442-.349-4.726-.541-6.936-.662 1.758 3.426 3.502 8 3.502 12.701 0 2.211-1.789 4-4 4s-4-1.789-4-4c0-5.017-3.164-10.292-4.636-12.48-6.692.793-11.88 3.022-15.415 6.754-6.863 7.254-6.494 18.945-5.511 25.86 4.771-.619 9.659 1.65 12.097 6.12l11.094 20.34c4.777 8.754 4.59 19.109-.5 27.695-5.097 8.59-14.1 13.715-24.081 13.715h-41.047c-2.207 0-4 1.793-4 4s1.793 4 4 4h92c5.208 0 9.606 3.354 11.263 8h8.737v-24c0-8.824 7.176-16 16-16 4.41 0 8-3.59 8-8v-13.11c-2.381-1.386-4-3.937-4-6.89 0-4.418 3.582-8 8-8s8 3.582 8 8c0 2.954-1.619 5.505-4 6.89v13.11c0 8.824-7.176 16-16 16-4.41 0-8 3.59-8 8v24h12.319c1.952-13.545 13.604-24 27.681-24h5.109c1.386-2.381 3.937-4 6.891-4 4.418 0 8 3.582 8 8zm-146.096-69.344c-.252-7.042.793-15.211 5.232-22.033-3.079-2.88-7.247-7.785-7.456-13.288l-16.167-2.695c-1.645 8.017-7.45 13.927-10.826 16.782 2.645 3.579 3.831 7.371 4.338 10.34 9.446-1.361 18.276 4.481 24.879 10.894z" fill="url(#SVGID_1_)"/></g></svg>