<svg id="Capa_1" enable-background="new 0 0 512 512" height="512" viewBox="0 0 512 512" width="512" xmlns="http://www.w3.org/2000/svg"><g><g><path d="m48.917 314.589h414.167v32.325h-414.167z" fill="#e4f6ff"/></g><g><path d="m395.77 346.915c2.403-10.392 3.673-21.213 3.673-32.325h-286.886c0 11.112 1.27 21.933 3.673 32.325z" fill="#d3effb"/></g><g><path d="m377.22 7.5h64.65v307.089h-64.65z" fill="#95d6a4"/></g><g><path d="m377.22 314.589h22.224c0-28.151-8.157-54.43-22.224-76.608z" fill="#78c2a4"/></g><g><path d="m274.856 70.13h64.65v244.459h-64.65z" fill="#f6e781"/></g><g><path d="m274.856 172.387v142.203h64.65v-116.56c-18.704-13.44-40.758-22.492-64.65-25.643z" fill="#f4dd45"/></g><g><path d="m172.493 113.567h64.65v201.022h-64.65z" fill="#9d66d5"/></g><g><path d="m172.493 198.029v116.56h64.65v-142.202c-23.891 3.151-45.945 12.203-64.65 25.642z" fill="#8659b9"/></g><g><path d="m70.13 164.075h64.65v150.514h-64.65z" fill="#dd636e"/></g><g><path d="m134.78 237.981c-14.066 22.179-22.224 48.457-22.224 76.608h22.224z" fill="#da4a54"/></g><g><g><path d="m225.695 431.768h60.61v36.366h-60.61z" fill="#2b4d66"/></g><g><path d="m237.817 468.134h36.366v36.366h-36.366z" fill="#4a80aa"/></g><g><circle cx="256" cy="314.589" fill="#407093" r="121.22"/></g><g><path d="m329.307 218.049c15.483 20.358 24.679 45.757 24.679 73.307 0 66.948-54.272 121.22-121.22 121.22-27.55 0-52.948-9.197-73.307-24.679 22.141 29.113 57.143 47.913 96.54 47.913 66.948 0 121.22-54.272 121.22-121.22.001-39.398-18.8-74.4-47.912-96.541z" fill="#365e7d"/></g><g><circle cx="256" cy="314.589" fill="#e4f6ff" r="88.894"/></g><g><path d="m309.682 243.735c11.319 14.916 18.04 33.513 18.04 53.682 0 49.095-39.799 88.894-88.894 88.894-20.169 0-38.765-6.721-53.682-18.04 16.233 21.393 41.929 35.212 70.855 35.212 49.095 0 88.894-39.799 88.894-88.894-.001-28.926-13.82-54.621-35.213-70.854z" fill="#d3effb"/></g></g><g><path d="m463.08 307.09h-13.71v-210.34c0-4.142-3.357-7.5-7.5-7.5s-7.5 3.358-7.5 7.5v210.34h-49.65v-292.09h49.65v46.75c0 4.142 3.357 7.5 7.5 7.5s7.5-3.358 7.5-7.5v-54.25c0-4.142-3.357-7.5-7.5-7.5h-64.65c-4.143 0-7.5 3.358-7.5 7.5v246.842c-6.032-11.341-13.705-21.682-22.71-30.694v-153.518c0-4.142-3.357-7.5-7.5-7.5h-64.65c-4.143 0-7.5 3.358-7.5 7.5v116.247c-3.745-.329-7.532-.507-11.36-.507s-7.615.178-11.36.507v-72.807c0-4.142-3.358-7.5-7.5-7.5h-64.65c-4.142 0-7.5 3.358-7.5 7.5v110.079c-9.005 9.012-16.678 19.354-22.71 30.694v-90.263c0-4.142-3.358-7.5-7.5-7.5h-64.65c-4.142 0-7.5 3.358-7.5 7.5v36.85c0 4.142 3.358 7.5 7.5 7.5s7.5-3.358 7.5-7.5v-29.35h49.65v135.51h-49.65v-71.16c0-4.142-3.358-7.5-7.5-7.5s-7.5 3.358-7.5 7.5v71.16h-13.71c-4.142 0-7.5 3.358-7.5 7.5v32.32c0 4.142 3.358 7.5 7.5 7.5h84.673c12.937 39.67 44.651 70.932 84.602 83.23v30.494c0 4.142 3.358 7.5 7.5 7.5h4.622v28.866c0 4.142 3.358 7.5 7.5 7.5s7.5-3.358 7.5-7.5v-28.866h21.366v28.866c0 4.142 3.357 7.5 7.5 7.5s7.5-3.358 7.5-7.5v-28.866h4.622c4.143 0 7.5-3.358 7.5-7.5v-30.494c39.951-12.299 71.666-43.561 84.602-83.23h84.673c4.143 0 7.5-3.358 7.5-7.5v-32.32c0-4.142-3.357-7.5-7.5-7.5zm-180.72-229.46h49.649v133.147c-14.539-10.674-31.388-18.373-49.649-22.189zm-52.72 43.44v67.519c-18.262 3.815-35.111 11.515-49.65 22.189v-89.708zm-173.22 218.34v-17.32h71.085c.34 5.887 1.078 11.669 2.187 17.32zm222.385 121.224h-45.609v-19.349c7.404 1.329 15.025 2.023 22.805 2.023s15.401-.694 22.805-2.023v19.349zm-22.805-32.325c-62.705 0-113.72-51.015-113.72-113.72s51.015-113.719 113.72-113.719 113.72 51.014 113.72 113.719-51.015 113.72-113.72 113.72zm199.58-88.899h-73.271c1.109-5.651 1.847-11.433 2.187-17.32h71.084z"/><path d="m256 218.2c-53.15 0-96.39 43.24-96.39 96.39s43.24 96.39 96.39 96.39c21.96 0 42.642-7.193 59.81-20.803 3.246-2.573 3.791-7.291 1.218-10.537s-7.291-3.792-10.536-1.218c-14.49 11.487-31.95 17.558-50.492 17.558-44.879 0-81.39-36.511-81.39-81.39 0-44.878 36.511-81.39 81.39-81.39 44.878 0 81.39 36.511 81.39 81.39 0 13.856-3.537 27.521-10.229 39.516-2.018 3.617-.722 8.186 2.896 10.204 3.619 2.018 8.187.721 10.204-2.896 7.936-14.224 12.13-30.416 12.13-46.824-.001-53.15-43.242-96.39-96.391-96.39z"/><path d="m70.13 15h20.204c4.142 0 7.5-3.358 7.5-7.5s-3.358-7.5-7.501-7.5h-20.203c-4.142 0-7.5 3.358-7.5 7.5s3.358 7.5 7.5 7.5z"/><path d="m122.659 15h70.711c4.142 0 7.5-3.358 7.5-7.5s-3.358-7.5-7.5-7.5h-70.711c-4.142 0-7.5 3.358-7.5 7.5s3.358 7.5 7.5 7.5z"/><path d="m70.13 47.325h20.204c4.142 0 7.5-3.358 7.5-7.5s-3.358-7.5-7.5-7.5h-20.204c-4.142 0-7.5 3.358-7.5 7.5s3.358 7.5 7.5 7.5z"/><path d="m122.659 47.325h70.711c4.142 0 7.5-3.358 7.5-7.5s-3.358-7.5-7.5-7.5h-70.711c-4.142 0-7.5 3.358-7.5 7.5s3.358 7.5 7.5 7.5z"/><path d="m70.13 79.65h20.204c4.142 0 7.5-3.358 7.5-7.5s-3.358-7.5-7.5-7.5h-20.204c-4.142 0-7.5 3.358-7.5 7.5s3.358 7.5 7.5 7.5z"/><path d="m122.659 79.65h70.711c4.142 0 7.5-3.358 7.5-7.5s-3.358-7.5-7.5-7.5h-70.711c-4.142 0-7.5 3.358-7.5 7.5s3.358 7.5 7.5 7.5z"/></g></g></svg>