<?xml version="1.0" encoding="iso-8859-1"?>
<!-- Generator: Adobe Illustrator 19.0.0, SVG Export Plug-In . SVG Version: 6.00 Build 0)  -->
<svg version="1.1" id="Capa_1" xmlns="http://www.w3.org/2000/svg" xmlns:xlink="http://www.w3.org/1999/xlink" x="0px" y="0px"
	 viewBox="0 0 194.56 194.56" style="enable-background:new 0 0 194.56 194.56;" xml:space="preserve">
<circle style="fill:#85D839;" cx="117.76" cy="102.4" r="25.6"/>
<path d="M117.76,131.413c-15.998,0-29.013-13.015-29.013-29.013s13.015-29.013,29.013-29.013s29.013,13.015,29.013,29.013
	S133.758,131.413,117.76,131.413z M117.76,80.213c-12.233,0-22.187,9.953-22.187,22.187s9.953,22.187,22.187,22.187
	s22.187-9.953,22.187-22.187S129.993,80.213,117.76,80.213z"/>
<circle style="fill:#85D839;" cx="107.52" cy="95.573" r="11.947"/>
<path d="M107.52,110.933c-8.468,0-15.36-6.892-15.36-15.36s6.892-15.36,15.36-15.36s15.36,6.892,15.36,15.36
	S115.988,110.933,107.52,110.933z M107.52,87.04c-4.705,0-8.533,3.828-8.533,8.533c0,4.705,3.828,8.533,8.533,8.533
	c4.705,0,8.533-3.828,8.533-8.533C116.053,90.868,112.225,87.04,107.52,87.04z"/>
<circle style="fill:#FBAD4A;" cx="63.147" cy="27.307" r="18.773"/>
<path d="M63.147,49.493c-12.233,0-22.187-9.953-22.187-22.187S50.913,5.12,63.147,5.12s22.187,9.953,22.187,22.187
	S75.38,49.493,63.147,49.493z M63.147,11.947c-8.468,0-15.36,6.892-15.36,15.36s6.892,15.36,15.36,15.36
	c8.468,0,15.36-6.892,15.36-15.36S71.615,11.947,63.147,11.947z"/>
<circle style="fill:#FBAD4A;" cx="55.637" cy="22.306" r="8.76"/>
<path d="M55.637,34.475c-6.712,0-12.174-5.461-12.174-12.174c0-6.714,5.461-12.175,12.174-12.175s12.174,5.461,12.174,12.175
	C67.811,29.013,62.35,34.475,55.637,34.475z M55.637,16.952c-2.949,0-5.347,2.4-5.347,5.349c0,2.949,2.4,5.347,5.347,5.347
	s5.347-2.4,5.347-5.347C60.984,19.352,58.586,16.952,55.637,16.952z"/>
<circle style="fill:#ED5481;" cx="165.547" cy="37.547" r="15.36"/>
<path d="M165.547,56.32c-10.351,0-18.773-8.422-18.773-18.773s8.422-18.773,18.773-18.773s18.773,8.422,18.773,18.773
	S175.898,56.32,165.547,56.32z M165.547,25.6c-6.588,0-11.947,5.359-11.947,11.947s5.359,11.947,11.947,11.947
	c6.588,0,11.947-5.359,11.947-11.947S172.134,25.6,165.547,25.6z"/>
<circle style="fill:#ED5481;" cx="159.403" cy="33.451" r="7.168"/>
<path d="M159.403,44.032c-5.835,0-10.581-4.746-10.581-10.581s4.746-10.581,10.581-10.581c5.835,0,10.581,4.746,10.581,10.581
	C169.984,39.286,165.238,44.032,159.403,44.032z M159.403,29.696c-2.07,0-3.755,1.684-3.755,3.755s1.684,3.755,3.755,3.755
	c2.07,0,3.755-1.684,3.755-3.755C163.157,31.38,161.473,29.696,159.403,29.696z"/>
<circle style="fill:#26BBEC;" cx="18.773" cy="88.747" r="15.36"/>
<path d="M18.773,107.52C8.422,107.52,0,99.098,0,88.747s8.422-18.773,18.773-18.773s18.773,8.422,18.773,18.773
	S29.124,107.52,18.773,107.52z M18.773,76.8c-6.588,0-11.947,5.359-11.947,11.947c0,6.588,5.359,11.947,11.947,11.947
	S30.72,95.334,30.72,88.747C30.72,82.159,25.361,76.8,18.773,76.8z"/>
<circle style="fill:#26BBEC;" cx="12.629" cy="84.651" r="7.168"/>
<path d="M12.629,95.232c-5.835,0-10.581-4.746-10.581-10.581c0-5.835,4.746-10.581,10.581-10.581s10.581,4.746,10.581,10.581
	C23.211,90.486,18.464,95.232,12.629,95.232z M12.629,80.896c-2.07,0-3.755,1.684-3.755,3.755s1.684,3.755,3.755,3.755
	s3.755-1.684,3.755-3.755S14.7,80.896,12.629,80.896z"/>
<circle style="fill:#8C6B3B;" cx="175.787" cy="153.6" r="15.36"/>
<path d="M175.787,172.373c-10.351,0-18.773-8.422-18.773-18.773s8.422-18.773,18.773-18.773s18.773,8.422,18.773,18.773
	S186.138,172.373,175.787,172.373z M175.787,141.653c-6.588,0-11.947,5.359-11.947,11.947s5.359,11.947,11.947,11.947
	s11.947-5.359,11.947-11.947S182.374,141.653,175.787,141.653z"/>
<circle style="fill:#8C6B3B;" cx="169.643" cy="149.504" r="7.168"/>
<path d="M169.643,160.085c-5.835,0-10.581-4.746-10.581-10.581c0-5.835,4.746-10.581,10.581-10.581
	c5.835,0,10.581,4.746,10.581,10.581C180.224,155.339,175.478,160.085,169.643,160.085z M169.643,145.749
	c-2.07,0-3.755,1.684-3.755,3.755c0,2.07,1.684,3.755,3.755,3.755c2.07,0,3.755-1.684,3.755-3.755
	C173.397,147.434,171.713,145.749,169.643,145.749z"/>
<circle style="fill:#777777;" cx="66.56" cy="160.427" r="25.6"/>
<path d="M66.56,189.44c-15.998,0-29.013-13.015-29.013-29.013s13.015-29.013,29.013-29.013c15.998,0,29.013,13.015,29.013,29.013
	S82.558,189.44,66.56,189.44z M66.56,138.24c-12.233,0-22.187,9.953-22.187,22.187s9.953,22.187,22.187,22.187
	s22.187-9.953,22.187-22.187S78.793,138.24,66.56,138.24z"/>
<circle style="fill:#777777;" cx="56.32" cy="153.6" r="11.947"/>
<path d="M56.32,168.96c-8.468,0-15.36-6.892-15.36-15.36s6.892-15.36,15.36-15.36c8.468,0,15.36,6.892,15.36,15.36
	S64.788,168.96,56.32,168.96z M56.32,145.067c-4.705,0-8.533,3.828-8.533,8.533s3.828,8.533,8.533,8.533s8.533-3.828,8.533-8.533
	S61.025,145.067,56.32,145.067z"/>
<path d="M102.402,87.04c-1.055,0-2.096-0.488-2.763-1.406L72.332,48.087c-1.108-1.524-0.771-3.659,0.753-4.768
	c1.524-1.106,3.661-0.771,4.768,0.753l27.307,37.547c1.108,1.524,0.771,3.659-0.753,4.768C103.801,86.827,103.1,87.04,102.402,87.04
	z"/>
<path d="M133.118,83.627c-0.797,0-1.599-0.278-2.246-0.845c-1.42-1.242-1.563-3.398-0.321-4.816l23.893-27.307
	c1.242-1.42,3.4-1.562,4.816-0.321c1.42,1.242,1.563,3.398,0.321,4.816l-23.893,27.307
	C135.014,83.232,134.069,83.627,133.118,83.627z"/>
<path d="M160.427,148.48c-0.874,0-1.748-0.333-2.413-1l-23.893-23.893c-1.333-1.333-1.333-3.494,0-4.826
	c1.331-1.333,3.495-1.333,4.826,0l23.893,23.893c1.333,1.333,1.333,3.494,0,4.826C162.174,148.147,161.3,148.48,160.427,148.48z"/>
<path d="M85.333,145.067c-0.874,0-1.748-0.333-2.413-1c-1.333-1.333-1.333-3.494,0-4.826l17.067-17.067
	c1.331-1.333,3.495-1.333,4.826,0c1.333,1.333,1.333,3.494,0,4.826l-17.067,17.067C87.081,144.734,86.207,145.067,85.333,145.067z"
	/>
<path d="M88.75,104.107c-0.142,0-0.285-0.009-0.427-0.027L33.71,97.253c-1.871-0.234-3.198-1.939-2.963-3.809
	c0.234-1.869,1.944-3.2,3.809-2.963l54.613,6.827c1.87,0.234,3.198,1.939,2.963,3.809C91.918,102.844,90.448,104.107,88.75,104.107z
	"/>
<g>
</g>
<g>
</g>
<g>
</g>
<g>
</g>
<g>
</g>
<g>
</g>
<g>
</g>
<g>
</g>
<g>
</g>
<g>
</g>
<g>
</g>
<g>
</g>
<g>
</g>
<g>
</g>
<g>
</g>
</svg>
